<?xml version="1.0" standalone="no"?>
<svg xmlns="http://www.w3.org/2000/svg" width="1000" height="1300" viewBox="0 0 1000 1300"><defs><clipPath id="clip-path-dot-color"><rect x="152" y="440" width="24" height="24" transform="rotate(0,164,452)"/><rect x="152" y="584" width="24" height="24" transform="rotate(0,164,596)"/><rect x="152" y="632" width="24" height="24" transform="rotate(0,164,644)"/><rect x="176" y="344" width="24" height="24" transform="rotate(0,188,356)"/><rect x="176" y="416" width="24" height="24" transform="rotate(0,188,428)"/><rect x="176" y="584" width="24" height="24" transform="rotate(0,188,596)"/><rect x="176" y="608" width="24" height="24" transform="rotate(0,188,620)"/><rect x="176" y="632" width="24" height="24" transform="rotate(0,188,644)"/><rect x="200" y="344" width="24" height="24" transform="rotate(0,212,356)"/><rect x="200" y="368" width="24" height="24" transform="rotate(0,212,380)"/><rect x="200" y="440" width="24" height="24" transform="rotate(0,212,452)"/><rect x="200" y="488" width="24" height="24" transform="rotate(0,212,500)"/><rect x="200" y="512" width="24" height="24" transform="rotate(0,212,524)"/><rect x="200" y="632" width="24" height="24" transform="rotate(0,212,644)"/><rect x="224" y="392" width="24" height="24" transform="rotate(0,236,404)"/><rect x="224" y="488" width="24" height="24" transform="rotate(0,236,500)"/><rect x="224" y="512" width="24" height="24" transform="rotate(0,236,524)"/><rect x="224" y="560" width="24" height="24" transform="rotate(0,236,572)"/><rect x="224" y="608" width="24" height="24" transform="rotate(0,236,620)"/><rect x="248" y="368" width="24" height="24" transform="rotate(0,260,380)"/><rect x="248" y="392" width="24" height="24" transform="rotate(0,260,404)"/><rect x="248" y="440" width="24" height="24" transform="rotate(0,260,452)"/><rect x="248" y="488" width="24" height="24" transform="rotate(0,260,500)"/><rect x="248" y="560" width="24" height="24" transform="rotate(0,260,572)"/><rect x="248" y="584" width="24" height="24" transform="rotate(0,260,596)"/><rect x="248" y="608" width="24" height="24" transform="rotate(0,260,620)"/><rect x="272" y="392" width="24" height="24" transform="rotate(0,284,404)"/><rect x="272" y="416" width="24" height="24" transform="rotate(0,284,428)"/><rect x="272" y="464" width="24" height="24" transform="rotate(0,284,476)"/><rect x="272" y="536" width="24" height="24" transform="rotate(0,284,548)"/><rect x="272" y="608" width="24" height="24" transform="rotate(0,284,620)"/><rect x="296" y="344" width="24" height="24" transform="rotate(0,308,356)"/><rect x="296" y="392" width="24" height="24" transform="rotate(0,308,404)"/><rect x="296" y="440" width="24" height="24" transform="rotate(0,308,452)"/><rect x="296" y="488" width="24" height="24" transform="rotate(0,308,500)"/><rect x="296" y="536" width="24" height="24" transform="rotate(0,308,548)"/><rect x="296" y="584" width="24" height="24" transform="rotate(0,308,596)"/><rect x="296" y="632" width="24" height="24" transform="rotate(0,308,644)"/><rect x="320" y="416" width="24" height="24" transform="rotate(0,332,428)"/><rect x="320" y="464" width="24" height="24" transform="rotate(0,332,476)"/><rect x="320" y="512" width="24" height="24" transform="rotate(0,332,524)"/><rect x="320" y="536" width="24" height="24" transform="rotate(0,332,548)"/><rect x="320" y="560" width="24" height="24" transform="rotate(0,332,572)"/><rect x="320" y="584" width="24" height="24" transform="rotate(0,332,596)"/><rect x="320" y="608" width="24" height="24" transform="rotate(0,332,620)"/><rect x="320" y="632" width="24" height="24" transform="rotate(0,332,644)"/><rect x="344" y="176" width="24" height="24" transform="rotate(0,356,188)"/><rect x="344" y="200" width="24" height="24" transform="rotate(0,356,212)"/><rect x="344" y="224" width="24" height="24" transform="rotate(0,356,236)"/><rect x="344" y="272" width="24" height="24" transform="rotate(0,356,284)"/><rect x="344" y="296" width="24" height="24" transform="rotate(0,356,308)"/><rect x="344" y="368" width="24" height="24" transform="rotate(0,356,380)"/><rect x="344" y="416" width="24" height="24" transform="rotate(0,356,428)"/><rect x="344" y="440" width="24" height="24" transform="rotate(0,356,452)"/><rect x="344" y="512" width="24" height="24" transform="rotate(0,356,524)"/><rect x="344" y="536" width="24" height="24" transform="rotate(0,356,548)"/><rect x="344" y="608" width="24" height="24" transform="rotate(0,356,620)"/><rect x="344" y="776" width="24" height="24" transform="rotate(0,356,788)"/><rect x="344" y="800" width="24" height="24" transform="rotate(0,356,812)"/><rect x="368" y="176" width="24" height="24" transform="rotate(0,380,188)"/><rect x="368" y="200" width="24" height="24" transform="rotate(0,380,212)"/><rect x="368" y="248" width="24" height="24" transform="rotate(0,380,260)"/><rect x="368" y="272" width="24" height="24" transform="rotate(0,380,284)"/><rect x="368" y="320" width="24" height="24" transform="rotate(0,380,332)"/><rect x="368" y="344" width="24" height="24" transform="rotate(0,380,356)"/><rect x="368" y="416" width="24" height="24" transform="rotate(0,380,428)"/><rect x="368" y="464" width="24" height="24" transform="rotate(0,380,476)"/><rect x="368" y="560" width="24" height="24" transform="rotate(0,380,572)"/><rect x="368" y="704" width="24" height="24" transform="rotate(0,380,716)"/><rect x="368" y="728" width="24" height="24" transform="rotate(0,380,740)"/><rect x="368" y="776" width="24" height="24" transform="rotate(0,380,788)"/><rect x="368" y="824" width="24" height="24" transform="rotate(0,380,836)"/><rect x="392" y="152" width="24" height="24" transform="rotate(0,404,164)"/><rect x="392" y="224" width="24" height="24" transform="rotate(0,404,236)"/><rect x="392" y="248" width="24" height="24" transform="rotate(0,404,260)"/><rect x="392" y="296" width="24" height="24" transform="rotate(0,404,308)"/><rect x="392" y="320" width="24" height="24" transform="rotate(0,404,332)"/><rect x="392" y="344" width="24" height="24" transform="rotate(0,404,356)"/><rect x="392" y="368" width="24" height="24" transform="rotate(0,404,380)"/><rect x="392" y="392" width="24" height="24" transform="rotate(0,404,404)"/><rect x="392" y="464" width="24" height="24" transform="rotate(0,404,476)"/><rect x="392" y="512" width="24" height="24" transform="rotate(0,404,524)"/><rect x="392" y="536" width="24" height="24" transform="rotate(0,404,548)"/><rect x="392" y="560" width="24" height="24" transform="rotate(0,404,572)"/><rect x="392" y="632" width="24" height="24" transform="rotate(0,404,644)"/><rect x="392" y="680" width="24" height="24" transform="rotate(0,404,692)"/><rect x="392" y="704" width="24" height="24" transform="rotate(0,404,716)"/><rect x="392" y="800" width="24" height="24" transform="rotate(0,404,812)"/><rect x="416" y="152" width="24" height="24" transform="rotate(0,428,164)"/><rect x="416" y="200" width="24" height="24" transform="rotate(0,428,212)"/><rect x="416" y="224" width="24" height="24" transform="rotate(0,428,236)"/><rect x="416" y="272" width="24" height="24" transform="rotate(0,428,284)"/><rect x="416" y="344" width="24" height="24" transform="rotate(0,428,356)"/><rect x="416" y="392" width="24" height="24" transform="rotate(0,428,404)"/><rect x="416" y="440" width="24" height="24" transform="rotate(0,428,452)"/><rect x="416" y="584" width="24" height="24" transform="rotate(0,428,596)"/><rect x="416" y="608" width="24" height="24" transform="rotate(0,428,620)"/><rect x="416" y="632" width="24" height="24" transform="rotate(0,428,644)"/><rect x="416" y="704" width="24" height="24" transform="rotate(0,428,716)"/><rect x="416" y="728" width="24" height="24" transform="rotate(0,428,740)"/><rect x="416" y="824" width="24" height="24" transform="rotate(0,428,836)"/><rect x="440" y="200" width="24" height="24" transform="rotate(0,452,212)"/><rect x="440" y="224" width="24" height="24" transform="rotate(0,452,236)"/><rect x="440" y="248" width="24" height="24" transform="rotate(0,452,260)"/><rect x="440" y="296" width="24" height="24" transform="rotate(0,452,308)"/><rect x="440" y="368" width="24" height="24" transform="rotate(0,452,380)"/><rect x="440" y="416" width="24" height="24" transform="rotate(0,452,428)"/><rect x="440" y="488" width="24" height="24" transform="rotate(0,452,500)"/><rect x="440" y="512" width="24" height="24" transform="rotate(0,452,524)"/><rect x="440" y="536" width="24" height="24" transform="rotate(0,452,548)"/><rect x="440" y="560" width="24" height="24" transform="rotate(0,452,572)"/><rect x="440" y="584" width="24" height="24" transform="rotate(0,452,596)"/><rect x="440" y="632" width="24" height="24" transform="rotate(0,452,644)"/><rect x="440" y="656" width="24" height="24" transform="rotate(0,452,668)"/><rect x="440" y="704" width="24" height="24" transform="rotate(0,452,716)"/><rect x="440" y="752" width="24" height="24" transform="rotate(0,452,764)"/><rect x="440" y="800" width="24" height="24" transform="rotate(0,452,812)"/><rect x="440" y="824" width="24" height="24" transform="rotate(0,452,836)"/><rect x="464" y="152" width="24" height="24" transform="rotate(0,476,164)"/><rect x="464" y="176" width="24" height="24" transform="rotate(0,476,188)"/><rect x="464" y="200" width="24" height="24" transform="rotate(0,476,212)"/><rect x="464" y="344" width="24" height="24" transform="rotate(0,476,356)"/><rect x="464" y="440" width="24" height="24" transform="rotate(0,476,452)"/><rect x="464" y="512" width="24" height="24" transform="rotate(0,476,524)"/><rect x="464" y="608" width="24" height="24" transform="rotate(0,476,620)"/><rect x="464" y="680" width="24" height="24" transform="rotate(0,476,692)"/><rect x="464" y="704" width="24" height="24" transform="rotate(0,476,716)"/><rect x="464" y="752" width="24" height="24" transform="rotate(0,476,764)"/><rect x="464" y="776" width="24" height="24" transform="rotate(0,476,788)"/><rect x="464" y="824" width="24" height="24" transform="rotate(0,476,836)"/><rect x="488" y="152" width="24" height="24" transform="rotate(0,500,164)"/><rect x="488" y="248" width="24" height="24" transform="rotate(0,500,260)"/><rect x="488" y="296" width="24" height="24" transform="rotate(0,500,308)"/><rect x="488" y="488" width="24" height="24" transform="rotate(0,500,500)"/><rect x="488" y="512" width="24" height="24" transform="rotate(0,500,524)"/><rect x="488" y="536" width="24" height="24" transform="rotate(0,500,548)"/><rect x="488" y="560" width="24" height="24" transform="rotate(0,500,572)"/><rect x="488" y="584" width="24" height="24" transform="rotate(0,500,596)"/><rect x="488" y="608" width="24" height="24" transform="rotate(0,500,620)"/><rect x="488" y="632" width="24" height="24" transform="rotate(0,500,644)"/><rect x="488" y="656" width="24" height="24" transform="rotate(0,500,668)"/><rect x="488" y="680" width="24" height="24" transform="rotate(0,500,692)"/><rect x="488" y="704" width="24" height="24" transform="rotate(0,500,716)"/><rect x="488" y="728" width="24" height="24" transform="rotate(0,500,740)"/><rect x="488" y="752" width="24" height="24" transform="rotate(0,500,764)"/><rect x="488" y="800" width="24" height="24" transform="rotate(0,500,812)"/><rect x="488" y="824" width="24" height="24" transform="rotate(0,500,836)"/><rect x="512" y="152" width="24" height="24" transform="rotate(0,524,164)"/><rect x="512" y="176" width="24" height="24" transform="rotate(0,524,188)"/><rect x="512" y="272" width="24" height="24" transform="rotate(0,524,284)"/><rect x="512" y="320" width="24" height="24" transform="rotate(0,524,332)"/><rect x="512" y="488" width="24" height="24" transform="rotate(0,524,500)"/><rect x="512" y="536" width="24" height="24" transform="rotate(0,524,548)"/><rect x="512" y="560" width="24" height="24" transform="rotate(0,524,572)"/><rect x="512" y="584" width="24" height="24" transform="rotate(0,524,596)"/><rect x="512" y="656" width="24" height="24" transform="rotate(0,524,668)"/><rect x="512" y="728" width="24" height="24" transform="rotate(0,524,740)"/><rect x="512" y="752" width="24" height="24" transform="rotate(0,524,764)"/><rect x="512" y="800" width="24" height="24" transform="rotate(0,524,812)"/><rect x="536" y="176" width="24" height="24" transform="rotate(0,548,188)"/><rect x="536" y="200" width="24" height="24" transform="rotate(0,548,212)"/><rect x="536" y="296" width="24" height="24" transform="rotate(0,548,308)"/><rect x="536" y="368" width="24" height="24" transform="rotate(0,548,380)"/><rect x="536" y="392" width="24" height="24" transform="rotate(0,548,404)"/><rect x="536" y="440" width="24" height="24" transform="rotate(0,548,452)"/><rect x="536" y="536" width="24" height="24" transform="rotate(0,548,548)"/><rect x="536" y="560" width="24" height="24" transform="rotate(0,548,572)"/><rect x="536" y="584" width="24" height="24" transform="rotate(0,548,596)"/><rect x="536" y="656" width="24" height="24" transform="rotate(0,548,668)"/><rect x="536" y="704" width="24" height="24" transform="rotate(0,548,716)"/><rect x="536" y="752" width="24" height="24" transform="rotate(0,548,764)"/><rect x="560" y="200" width="24" height="24" transform="rotate(0,572,212)"/><rect x="560" y="224" width="24" height="24" transform="rotate(0,572,236)"/><rect x="560" y="248" width="24" height="24" transform="rotate(0,572,260)"/><rect x="560" y="344" width="24" height="24" transform="rotate(0,572,356)"/><rect x="560" y="416" width="24" height="24" transform="rotate(0,572,428)"/><rect x="560" y="440" width="24" height="24" transform="rotate(0,572,452)"/><rect x="560" y="536" width="24" height="24" transform="rotate(0,572,548)"/><rect x="560" y="560" width="24" height="24" transform="rotate(0,572,572)"/><rect x="560" y="632" width="24" height="24" transform="rotate(0,572,644)"/><rect x="560" y="656" width="24" height="24" transform="rotate(0,572,668)"/><rect x="560" y="704" width="24" height="24" transform="rotate(0,572,716)"/><rect x="560" y="752" width="24" height="24" transform="rotate(0,572,764)"/><rect x="560" y="776" width="24" height="24" transform="rotate(0,572,788)"/><rect x="584" y="152" width="24" height="24" transform="rotate(0,596,164)"/><rect x="584" y="224" width="24" height="24" transform="rotate(0,596,236)"/><rect x="584" y="296" width="24" height="24" transform="rotate(0,596,308)"/><rect x="584" y="320" width="24" height="24" transform="rotate(0,596,332)"/><rect x="584" y="368" width="24" height="24" transform="rotate(0,596,380)"/><rect x="584" y="392" width="24" height="24" transform="rotate(0,596,404)"/><rect x="584" y="464" width="24" height="24" transform="rotate(0,596,476)"/><rect x="584" y="488" width="24" height="24" transform="rotate(0,596,500)"/><rect x="584" y="512" width="24" height="24" transform="rotate(0,596,524)"/><rect x="584" y="536" width="24" height="24" transform="rotate(0,596,548)"/><rect x="584" y="560" width="24" height="24" transform="rotate(0,596,572)"/><rect x="584" y="680" width="24" height="24" transform="rotate(0,596,692)"/><rect x="584" y="752" width="24" height="24" transform="rotate(0,596,764)"/><rect x="608" y="200" width="24" height="24" transform="rotate(0,620,212)"/><rect x="608" y="368" width="24" height="24" transform="rotate(0,620,380)"/><rect x="608" y="416" width="24" height="24" transform="rotate(0,620,428)"/><rect x="608" y="464" width="24" height="24" transform="rotate(0,620,476)"/><rect x="608" y="560" width="24" height="24" transform="rotate(0,620,572)"/><rect x="608" y="608" width="24" height="24" transform="rotate(0,620,620)"/><rect x="608" y="632" width="24" height="24" transform="rotate(0,620,644)"/><rect x="608" y="656" width="24" height="24" transform="rotate(0,620,668)"/><rect x="608" y="680" width="24" height="24" transform="rotate(0,620,692)"/><rect x="608" y="752" width="24" height="24" transform="rotate(0,620,764)"/><rect x="608" y="776" width="24" height="24" transform="rotate(0,620,788)"/><rect x="608" y="824" width="24" height="24" transform="rotate(0,620,836)"/><rect x="632" y="176" width="24" height="24" transform="rotate(0,644,188)"/><rect x="632" y="296" width="24" height="24" transform="rotate(0,644,308)"/><rect x="632" y="320" width="24" height="24" transform="rotate(0,644,332)"/><rect x="632" y="392" width="24" height="24" transform="rotate(0,644,404)"/><rect x="632" y="464" width="24" height="24" transform="rotate(0,644,476)"/><rect x="632" y="488" width="24" height="24" transform="rotate(0,644,500)"/><rect x="632" y="536" width="24" height="24" transform="rotate(0,644,548)"/><rect x="632" y="560" width="24" height="24" transform="rotate(0,644,572)"/><rect x="632" y="584" width="24" height="24" transform="rotate(0,644,596)"/><rect x="632" y="632" width="24" height="24" transform="rotate(0,644,644)"/><rect x="632" y="656" width="24" height="24" transform="rotate(0,644,668)"/><rect x="632" y="680" width="24" height="24" transform="rotate(0,644,692)"/><rect x="632" y="704" width="24" height="24" transform="rotate(0,644,716)"/><rect x="632" y="728" width="24" height="24" transform="rotate(0,644,740)"/><rect x="632" y="752" width="24" height="24" transform="rotate(0,644,764)"/><rect x="632" y="776" width="24" height="24" transform="rotate(0,644,788)"/><rect x="656" y="344" width="24" height="24" transform="rotate(0,668,356)"/><rect x="656" y="416" width="24" height="24" transform="rotate(0,668,428)"/><rect x="656" y="488" width="24" height="24" transform="rotate(0,668,500)"/><rect x="656" y="584" width="24" height="24" transform="rotate(0,668,596)"/><rect x="656" y="608" width="24" height="24" transform="rotate(0,668,620)"/><rect x="656" y="632" width="24" height="24" transform="rotate(0,668,644)"/><rect x="656" y="728" width="24" height="24" transform="rotate(0,668,740)"/><rect x="656" y="752" width="24" height="24" transform="rotate(0,668,764)"/><rect x="656" y="824" width="24" height="24" transform="rotate(0,668,836)"/><rect x="680" y="392" width="24" height="24" transform="rotate(0,692,404)"/><rect x="680" y="416" width="24" height="24" transform="rotate(0,692,428)"/><rect x="680" y="440" width="24" height="24" transform="rotate(0,692,452)"/><rect x="680" y="488" width="24" height="24" transform="rotate(0,692,500)"/><rect x="680" y="536" width="24" height="24" transform="rotate(0,692,548)"/><rect x="680" y="560" width="24" height="24" transform="rotate(0,692,572)"/><rect x="680" y="608" width="24" height="24" transform="rotate(0,692,620)"/><rect x="680" y="632" width="24" height="24" transform="rotate(0,692,644)"/><rect x="680" y="680" width="24" height="24" transform="rotate(0,692,692)"/><rect x="680" y="728" width="24" height="24" transform="rotate(0,692,740)"/><rect x="680" y="776" width="24" height="24" transform="rotate(0,692,788)"/><rect x="680" y="800" width="24" height="24" transform="rotate(0,692,812)"/><rect x="704" y="344" width="24" height="24" transform="rotate(0,716,356)"/><rect x="704" y="392" width="24" height="24" transform="rotate(0,716,404)"/><rect x="704" y="416" width="24" height="24" transform="rotate(0,716,428)"/><rect x="704" y="512" width="24" height="24" transform="rotate(0,716,524)"/><rect x="704" y="584" width="24" height="24" transform="rotate(0,716,596)"/><rect x="704" y="632" width="24" height="24" transform="rotate(0,716,644)"/><rect x="704" y="728" width="24" height="24" transform="rotate(0,716,740)"/><rect x="704" y="800" width="24" height="24" transform="rotate(0,716,812)"/><rect x="728" y="392" width="24" height="24" transform="rotate(0,740,404)"/><rect x="728" y="416" width="24" height="24" transform="rotate(0,740,428)"/><rect x="728" y="440" width="24" height="24" transform="rotate(0,740,452)"/><rect x="728" y="464" width="24" height="24" transform="rotate(0,740,476)"/><rect x="728" y="488" width="24" height="24" transform="rotate(0,740,500)"/><rect x="728" y="584" width="24" height="24" transform="rotate(0,740,596)"/><rect x="728" y="632" width="24" height="24" transform="rotate(0,740,644)"/><rect x="728" y="656" width="24" height="24" transform="rotate(0,740,668)"/><rect x="728" y="680" width="24" height="24" transform="rotate(0,740,692)"/><rect x="728" y="704" width="24" height="24" transform="rotate(0,740,716)"/><rect x="728" y="728" width="24" height="24" transform="rotate(0,740,740)"/><rect x="728" y="752" width="24" height="24" transform="rotate(0,740,764)"/><rect x="728" y="776" width="24" height="24" transform="rotate(0,740,788)"/><rect x="728" y="824" width="24" height="24" transform="rotate(0,740,836)"/><rect x="752" y="344" width="24" height="24" transform="rotate(0,764,356)"/><rect x="752" y="464" width="24" height="24" transform="rotate(0,764,476)"/><rect x="752" y="488" width="24" height="24" transform="rotate(0,764,500)"/><rect x="752" y="536" width="24" height="24" transform="rotate(0,764,548)"/><rect x="752" y="584" width="24" height="24" transform="rotate(0,764,596)"/><rect x="752" y="608" width="24" height="24" transform="rotate(0,764,620)"/><rect x="752" y="728" width="24" height="24" transform="rotate(0,764,740)"/><rect x="752" y="800" width="24" height="24" transform="rotate(0,764,812)"/><rect x="776" y="344" width="24" height="24" transform="rotate(0,788,356)"/><rect x="776" y="368" width="24" height="24" transform="rotate(0,788,380)"/><rect x="776" y="416" width="24" height="24" transform="rotate(0,788,428)"/><rect x="776" y="440" width="24" height="24" transform="rotate(0,788,452)"/><rect x="776" y="488" width="24" height="24" transform="rotate(0,788,500)"/><rect x="776" y="512" width="24" height="24" transform="rotate(0,788,524)"/><rect x="776" y="536" width="24" height="24" transform="rotate(0,788,548)"/><rect x="776" y="632" width="24" height="24" transform="rotate(0,788,644)"/><rect x="776" y="704" width="24" height="24" transform="rotate(0,788,716)"/><rect x="776" y="752" width="24" height="24" transform="rotate(0,788,764)"/><rect x="776" y="776" width="24" height="24" transform="rotate(0,788,788)"/><rect x="776" y="824" width="24" height="24" transform="rotate(0,788,836)"/><rect x="800" y="344" width="24" height="24" transform="rotate(0,812,356)"/><rect x="800" y="368" width="24" height="24" transform="rotate(0,812,380)"/><rect x="800" y="392" width="24" height="24" transform="rotate(0,812,404)"/><rect x="800" y="416" width="24" height="24" transform="rotate(0,812,428)"/><rect x="800" y="488" width="24" height="24" transform="rotate(0,812,500)"/><rect x="800" y="536" width="24" height="24" transform="rotate(0,812,548)"/><rect x="800" y="656" width="24" height="24" transform="rotate(0,812,668)"/><rect x="800" y="680" width="24" height="24" transform="rotate(0,812,692)"/><rect x="800" y="728" width="24" height="24" transform="rotate(0,812,740)"/><rect x="800" y="752" width="24" height="24" transform="rotate(0,812,764)"/><rect x="800" y="800" width="24" height="24" transform="rotate(0,812,812)"/><rect x="824" y="368" width="24" height="24" transform="rotate(0,836,380)"/><rect x="824" y="440" width="24" height="24" transform="rotate(0,836,452)"/><rect x="824" y="464" width="24" height="24" transform="rotate(0,836,476)"/><rect x="824" y="488" width="24" height="24" transform="rotate(0,836,500)"/><rect x="824" y="512" width="24" height="24" transform="rotate(0,836,524)"/><rect x="824" y="584" width="24" height="24" transform="rotate(0,836,596)"/><rect x="824" y="608" width="24" height="24" transform="rotate(0,836,620)"/><rect x="824" y="632" width="24" height="24" transform="rotate(0,836,644)"/><rect x="824" y="656" width="24" height="24" transform="rotate(0,836,668)"/><rect x="824" y="704" width="24" height="24" transform="rotate(0,836,716)"/><rect x="824" y="752" width="24" height="24" transform="rotate(0,836,764)"/><rect x="824" y="800" width="24" height="24" transform="rotate(0,836,812)"/></clipPath><clipPath id="clip-path-corners-square-color-0-0"><rect x="152" y="152" width="24" height="24" transform="rotate(0,164,164)"/><rect x="152" y="176" width="24" height="24" transform="rotate(0,164,188)"/><rect x="152" y="200" width="24" height="24" transform="rotate(0,164,212)"/><rect x="152" y="224" width="24" height="24" transform="rotate(0,164,236)"/><rect x="152" y="248" width="24" height="24" transform="rotate(0,164,260)"/><rect x="152" y="272" width="24" height="24" transform="rotate(0,164,284)"/><rect x="152" y="296" width="24" height="24" transform="rotate(0,164,308)"/><rect x="176" y="152" width="24" height="24" transform="rotate(0,188,164)"/><rect x="176" y="296" width="24" height="24" transform="rotate(0,188,308)"/><rect x="200" y="152" width="24" height="24" transform="rotate(0,212,164)"/><rect x="200" y="296" width="24" height="24" transform="rotate(0,212,308)"/><rect x="224" y="152" width="24" height="24" transform="rotate(0,236,164)"/><rect x="224" y="296" width="24" height="24" transform="rotate(0,236,308)"/><rect x="248" y="152" width="24" height="24" transform="rotate(0,260,164)"/><rect x="248" y="296" width="24" height="24" transform="rotate(0,260,308)"/><rect x="272" y="152" width="24" height="24" transform="rotate(0,284,164)"/><rect x="272" y="296" width="24" height="24" transform="rotate(0,284,308)"/><rect x="296" y="152" width="24" height="24" transform="rotate(0,308,164)"/><rect x="296" y="176" width="24" height="24" transform="rotate(0,308,188)"/><rect x="296" y="200" width="24" height="24" transform="rotate(0,308,212)"/><rect x="296" y="224" width="24" height="24" transform="rotate(0,308,236)"/><rect x="296" y="248" width="24" height="24" transform="rotate(0,308,260)"/><rect x="296" y="272" width="24" height="24" transform="rotate(0,308,284)"/><rect x="296" y="296" width="24" height="24" transform="rotate(0,308,308)"/></clipPath><clipPath id="clip-path-corners-dot-color-0-0"><rect x="200" y="200" width="24" height="24" transform="rotate(0,212,212)"/><rect x="200" y="224" width="24" height="24" transform="rotate(0,212,236)"/><rect x="200" y="248" width="24" height="24" transform="rotate(0,212,260)"/><rect x="224" y="200" width="24" height="24" transform="rotate(0,236,212)"/><rect x="224" y="224" width="24" height="24" transform="rotate(0,236,236)"/><rect x="224" y="248" width="24" height="24" transform="rotate(0,236,260)"/><rect x="248" y="200" width="24" height="24" transform="rotate(0,260,212)"/><rect x="248" y="224" width="24" height="24" transform="rotate(0,260,236)"/><rect x="248" y="248" width="24" height="24" transform="rotate(0,260,260)"/></clipPath><clipPath id="clip-path-corners-square-color-1-0"><rect x="680" y="152" width="24" height="24" transform="rotate(0,692,164)"/><rect x="680" y="176" width="24" height="24" transform="rotate(0,692,188)"/><rect x="680" y="200" width="24" height="24" transform="rotate(0,692,212)"/><rect x="680" y="224" width="24" height="24" transform="rotate(0,692,236)"/><rect x="680" y="248" width="24" height="24" transform="rotate(0,692,260)"/><rect x="680" y="272" width="24" height="24" transform="rotate(0,692,284)"/><rect x="680" y="296" width="24" height="24" transform="rotate(0,692,308)"/><rect x="704" y="152" width="24" height="24" transform="rotate(0,716,164)"/><rect x="704" y="296" width="24" height="24" transform="rotate(0,716,308)"/><rect x="728" y="152" width="24" height="24" transform="rotate(0,740,164)"/><rect x="728" y="296" width="24" height="24" transform="rotate(0,740,308)"/><rect x="752" y="152" width="24" height="24" transform="rotate(0,764,164)"/><rect x="752" y="296" width="24" height="24" transform="rotate(0,764,308)"/><rect x="776" y="152" width="24" height="24" transform="rotate(0,788,164)"/><rect x="776" y="296" width="24" height="24" transform="rotate(0,788,308)"/><rect x="800" y="152" width="24" height="24" transform="rotate(0,812,164)"/><rect x="800" y="296" width="24" height="24" transform="rotate(0,812,308)"/><rect x="824" y="152" width="24" height="24" transform="rotate(0,836,164)"/><rect x="824" y="176" width="24" height="24" transform="rotate(0,836,188)"/><rect x="824" y="200" width="24" height="24" transform="rotate(0,836,212)"/><rect x="824" y="224" width="24" height="24" transform="rotate(0,836,236)"/><rect x="824" y="248" width="24" height="24" transform="rotate(0,836,260)"/><rect x="824" y="272" width="24" height="24" transform="rotate(0,836,284)"/><rect x="824" y="296" width="24" height="24" transform="rotate(0,836,308)"/></clipPath><clipPath id="clip-path-corners-dot-color-1-0"><rect x="728" y="200" width="24" height="24" transform="rotate(0,740,212)"/><rect x="728" y="224" width="24" height="24" transform="rotate(0,740,236)"/><rect x="728" y="248" width="24" height="24" transform="rotate(0,740,260)"/><rect x="752" y="200" width="24" height="24" transform="rotate(0,764,212)"/><rect x="752" y="224" width="24" height="24" transform="rotate(0,764,236)"/><rect x="752" y="248" width="24" height="24" transform="rotate(0,764,260)"/><rect x="776" y="200" width="24" height="24" transform="rotate(0,788,212)"/><rect x="776" y="224" width="24" height="24" transform="rotate(0,788,236)"/><rect x="776" y="248" width="24" height="24" transform="rotate(0,788,260)"/></clipPath><clipPath id="clip-path-corners-square-color-0-1"><rect x="152" y="680" width="24" height="24" transform="rotate(0,164,692)"/><rect x="152" y="704" width="24" height="24" transform="rotate(0,164,716)"/><rect x="152" y="728" width="24" height="24" transform="rotate(0,164,740)"/><rect x="152" y="752" width="24" height="24" transform="rotate(0,164,764)"/><rect x="152" y="776" width="24" height="24" transform="rotate(0,164,788)"/><rect x="152" y="800" width="24" height="24" transform="rotate(0,164,812)"/><rect x="152" y="824" width="24" height="24" transform="rotate(0,164,836)"/><rect x="176" y="680" width="24" height="24" transform="rotate(0,188,692)"/><rect x="176" y="824" width="24" height="24" transform="rotate(0,188,836)"/><rect x="200" y="680" width="24" height="24" transform="rotate(0,212,692)"/><rect x="200" y="824" width="24" height="24" transform="rotate(0,212,836)"/><rect x="224" y="680" width="24" height="24" transform="rotate(0,236,692)"/><rect x="224" y="824" width="24" height="24" transform="rotate(0,236,836)"/><rect x="248" y="680" width="24" height="24" transform="rotate(0,260,692)"/><rect x="248" y="824" width="24" height="24" transform="rotate(0,260,836)"/><rect x="272" y="680" width="24" height="24" transform="rotate(0,284,692)"/><rect x="272" y="824" width="24" height="24" transform="rotate(0,284,836)"/><rect x="296" y="680" width="24" height="24" transform="rotate(0,308,692)"/><rect x="296" y="704" width="24" height="24" transform="rotate(0,308,716)"/><rect x="296" y="728" width="24" height="24" transform="rotate(0,308,740)"/><rect x="296" y="752" width="24" height="24" transform="rotate(0,308,764)"/><rect x="296" y="776" width="24" height="24" transform="rotate(0,308,788)"/><rect x="296" y="800" width="24" height="24" transform="rotate(0,308,812)"/><rect x="296" y="824" width="24" height="24" transform="rotate(0,308,836)"/></clipPath><clipPath id="clip-path-corners-dot-color-0-1"><rect x="200" y="728" width="24" height="24" transform="rotate(0,212,740)"/><rect x="200" y="752" width="24" height="24" transform="rotate(0,212,764)"/><rect x="200" y="776" width="24" height="24" transform="rotate(0,212,788)"/><rect x="224" y="728" width="24" height="24" transform="rotate(0,236,740)"/><rect x="224" y="752" width="24" height="24" transform="rotate(0,236,764)"/><rect x="224" y="776" width="24" height="24" transform="rotate(0,236,788)"/><rect x="248" y="728" width="24" height="24" transform="rotate(0,260,740)"/><rect x="248" y="752" width="24" height="24" transform="rotate(0,260,764)"/><rect x="248" y="776" width="24" height="24" transform="rotate(0,260,788)"/></clipPath></defs><defs/><text x="50%" y="1080" fill="#575757" dominant-baseline="middle" text-anchor="middle" font-family="sans-serif" font-size="83" font-weight="600">XUnity Pharmacy App</text><rect x="112" y="112" height="777" width="776" clip-path="url('#clip-path-background-color')" fill="#ffffff"/><rect x="152" y="152" height="696" width="696" clip-path="url('#clip-path-dot-color')" fill="#000000"/><rect x="152" y="152" height="168" width="168" clip-path="url('#clip-path-corners-square-color-0-0')" fill="#000000"/><rect x="200" y="200" height="72" width="72" clip-path="url('#clip-path-corners-dot-color-0-0')" fill="#000000"/><rect x="680" y="152" height="168" width="168" clip-path="url('#clip-path-corners-square-color-1-0')" fill="#000000"/><rect x="728" y="200" height="72" width="72" clip-path="url('#clip-path-corners-dot-color-1-0')" fill="#000000"/><rect x="152" y="680" height="168" width="168" clip-path="url('#clip-path-corners-square-color-0-1')" fill="#000000"/><rect x="200" y="728" height="72" width="72" clip-path="url('#clip-path-corners-dot-color-0-1')" fill="#000000"/></svg>